# xmcd CD database file
#
# Track frame offsets:
#	150
#	13607
#	26950
#	41542
#	54500
#	68082
#	82962
#	96787
#	111757
#	127625
#	142925
#	155287
#	167385
#	181050
#	195797
#	208857
#	224167
#	238200
#	250785
#	264932
#	279635
#	293807
#	304222
#	316230
#
# Disc length: 4382 seconds
#
# Revision: 4
# Processed by: cddbd v1.5.2PL0 Copyright (c) Steve Scherf et al.
# Submitted via: CDex 1.51
#
DISCID=48111c18
DTITLE=Various Artist - The Story Of The Blues - Disc 01 -
DYEAR=2003
DGENRE=Blues
TTITLE0=Fra-Fra Tribesmen - Yarum Praise Songs
TTITLE1=Mississippi John Hurt - Stack O'Lee Blues
TTITLE2=Blind Willie McTell - Travelin' Blues
TTITLE3=Charley Patton - Stone Pony Blues
TTITLE4=Blind Lemon Jefferson - Black Snake Moan
TTITLE5=Leadbelly - Pigmeat
TTITLE6=Texas Alexander - Broken Yo-Yo
TTITLE7=Peg Leg Howell - Broke And Hungry Blues
TTITLE8=Barbecue Bob and Laughing Charley - It Won't Be Long Now
TTITLE9=Henry Williams and Eddie Anthony - Georgia Crawl
TTITLE10=Mississippi Jook Band - Dangerous Woman
TTITLE11=Memphis Jug Band - Gator Wobble
TTITLE12=Bessie Smith - In The House Blues
TTITLE13=Lillian Glinn - Shake It Down
TTITLE14=Bertha "Chippie" Hill - Pratt City Blues
TTITLE15=Butterbeans and Susie - What It Takes To Bring You Back
TTITLE16=Leroy Carr and Scrapper Blackwell - Midnight Hour Blues
TTITLE17=Faber Smith and Jimmy Yancey - East  St. Louis Blues
TTITLE18=Peetie Wheatstraw - Good Whiskey Blues
TTITLE19=Casey Bill Weldon and Black Bob - W.P.A. Blues
TTITLE20=Bo Carter - Sorry Feeling Blues
TTITLE21=Robert Johnson - Little Queen Of Spades
TTITLE22=Bukka White - Parchman Farm Blues
TTITLE23=Memphis Minnie - Me And My Chauffeur Blues
EXTD=YEAR: 2003
EXTT0=
EXTT1=
EXTT2=
EXTT3=
EXTT4=
EXTT5=
EXTT6=
EXTT7=
EXTT8=
EXTT9=
EXTT10=
EXTT11=
EXTT12=
EXTT13=
EXTT14=
EXTT15=
EXTT16=
EXTT17=
EXTT18=
EXTT19=
EXTT20=
EXTT21=
EXTT22=
EXTT23=
PLAYORDER=
